<?xml version="1.0" encoding="UTF-8" standalone="no"?>
<svg
   xmlns:dc="http://purl.org/dc/elements/1.1/"
   xmlns:cc="http://creativecommons.org/ns#"
   xmlns:rdf="http://www.w3.org/1999/02/22-rdf-syntax-ns#"
   xmlns:svg="http://www.w3.org/2000/svg"
   xmlns="http://www.w3.org/2000/svg"
   xmlns:xlink="http://www.w3.org/1999/xlink"
   xmlns:sodipodi="http://sodipodi.sourceforge.net/DTD/sodipodi-0.dtd"
   xmlns:inkscape="http://www.inkscape.org/namespaces/inkscape"
   version="1.1"
   id="Layer_1"
   x="0px"
   y="0px"
   viewBox="0 0 1366 768"
   style="enable-background:new 0 0 1366 768;"
   xml:space="preserve"
   sodipodi:docname="White Desert logo.svg"
   inkscape:version="1.0.2 (e86c8708, 2021-01-15)"><metadata
   id="metadata31"><rdf:RDF><cc:Work
       rdf:about=""><dc:format>image/svg+xml</dc:format><dc:type
         rdf:resource="http://purl.org/dc/dcmitype/StillImage" /><dc:title></dc:title></cc:Work></rdf:RDF></metadata><defs
   id="defs29" /><sodipodi:namedview
   pagecolor="#ffffff"
   bordercolor="#666666"
   borderopacity="1"
   objecttolerance="10"
   gridtolerance="10"
   guidetolerance="10"
   inkscape:pageopacity="0"
   inkscape:pageshadow="2"
   inkscape:window-width="995"
   inkscape:window-height="739"
   id="namedview27"
   showgrid="false"
   inkscape:zoom="0.45457674"
   inkscape:cx="749.33673"
   inkscape:cy="329.59617"
   inkscape:window-x="0"
   inkscape:window-y="25"
   inkscape:window-maximized="0"
   inkscape:current-layer="Layer_1" />
<style
   type="text/css"
   id="style10">
	.st0{clip-path:url(#SVGID_2_);fill:#FFFFFF;}
</style>
<g
   id="g24"
   style="fill:#000000;fill-opacity:1"
   transform="matrix(1.0737706,0,0,1.0737706,-50.854152,-26.999983)">
	<defs
   id="defs13">
		<rect
   id="SVGID_1_"
   x="152.72"
   y="127.43"
   width="1073.27"
   height="477.13" />
	</defs>
	<clipPath
   id="SVGID_2_">
		<use
   xlink:href="#SVGID_1_"
   style="overflow:visible"
   id="use15"
   x="0"
   y="0"
   width="100%"
   height="100%" />
	</clipPath>
	<path
   class="st0"
   d="M 1200.9,506.36 V 383.74 h 25.09 v -17.88 h -70.25 v 17.88 h 25.09 v 122.63 h 20.07 z m -117.9,0 v -65.23 h 15.05 l 20.23,65.23 h 19.91 l -22.58,-70.25 c 5.75,-2.09 10.11,-5.96 13.09,-11.6 2.98,-5.65 4.47,-12.65 4.47,-21.02 0,-13.48 -3.79,-23.13 -11.37,-28.93 -7.58,-5.8 -18.84,-8.7 -33.79,-8.7 h -25.09 v 140.5 z m 0,-125.44 h 5.02 c 8.36,0 14.64,1.76 18.82,5.29 4.18,3.53 6.27,9.29 6.27,17.29 0,8 -2.09,13.76 -6.27,17.29 -4.18,3.53 -10.45,5.29 -18.82,5.29 H 1083 Z m -48.44,125.44 v -15.05 h -35.12 v -50.18 h 25.09 v -15.05 h -25.09 v -45.16 h 35.12 v -15.05 h -55.2 v 140.5 h 55.2 z m -95.44,-7.29 c 6.35,-5.8 9.52,-13.85 9.52,-24.15 0,-15.05 -6.69,-27.99 -20.07,-38.81 l -25.09,-20.07 c -6.7,-5.33 -10.04,-11.94 -10.04,-19.84 0,-4.8 1.3,-8.55 3.92,-11.25 2.61,-2.69 6.32,-4.04 11.13,-4.04 6.01,0 10.57,1.92 13.68,5.76 3.11,3.84 5.11,8.95 6,15.33 0.21,1.78 0.34,3.11 0.39,3.99 l 20.07,-5.02 c -0.21,-1.93 -0.39,-3.45 -0.55,-4.55 -1.57,-10.19 -5.71,-18.07 -12.43,-23.64 -6.72,-5.57 -15.77,-8.35 -27.17,-8.35 -10.61,0 -19.13,3.06 -25.56,9.17 -6.43,6.11 -9.64,14.35 -9.64,24.7 0,7.11 1.37,13.45 4.12,19.01 2.74,5.57 6.42,10.15 11.02,13.76 l 25.09,20.07 c 2.35,1.88 4.21,3.46 5.57,4.74 1.36,1.28 2.87,2.98 4.55,5.1 1.67,2.11 2.91,4.44 3.72,6.98 0.81,2.54 1.21,5.29 1.21,8.27 0,10.04 -5.02,15.05 -15.05,15.05 -12.39,0 -19.08,-10.04 -20.07,-30.1 l -20.07,5.02 c 0.78,12.86 4.51,23 11.17,30.42 6.66,7.42 16.32,11.13 28.97,11.13 10.72,0.02 19.26,-2.88 25.61,-8.68 m -90.58,7.29 v -15.05 h -35.13 v -50.18 h 25.09 v -15.05 h -25.09 v -45.16 h 35.13 v -15.05 h -55.2 v 140.5 h 55.2 z M 708.52,380.92 h 10.66 c 2.19,0 4.18,0.14 5.96,0.43 1.78,0.28 3.33,0.65 4.67,1.09 1.33,0.44 2.51,1.13 3.53,2.04 1.02,0.91 1.88,1.79 2.59,2.62 0.7,0.84 1.29,2 1.76,3.49 0.47,1.49 0.84,2.84 1.1,4.04 0.26,1.2 0.45,2.83 0.59,4.9 0.13,2.07 0.21,3.86 0.24,5.37 0.03,1.51 0.04,3.55 0.04,6.11 v 45.16 3.06 c 0,4.13 -0.03,7.18 -0.08,9.13 -0.05,1.96 -0.25,4.46 -0.59,7.49 -0.34,3.03 -0.93,5.27 -1.77,6.7 -0.84,1.44 -1.98,2.95 -3.45,4.55 -1.46,1.6 -3.37,2.7 -5.73,3.3 -2.35,0.6 -5.17,0.9 -8.47,0.9 H 708.51 V 380.92 Z m 10.9,125.44 c 14.58,0 24.94,-3.67 31.09,-11.02 6.14,-7.34 9.21,-18.72 9.21,-34.14 V 406 c 0,-14.74 -3.02,-25.11 -9.05,-31.12 -6.04,-6.01 -16.4,-9.02 -31.09,-9.02 h -31.13 v 140.5 z m -108.01,0 v -15.05 h -35.13 v -50.18 h 25.09 v -15.05 h -25.09 v -45.16 h 35.13 v -15.05 h -55.2 v 140.5 h 55.2 z m -106.3,0 V 383.74 h 25.09 v -17.88 h -70.25 v 17.88 h 25.09 v 122.63 h 20.07 z m -72.59,-140.5 h -20.07 v 140.5 h 20.07 z m -112.34,140.5 v -65.23 h 35.12 v 65.23 h 20.07 V 365.86 H 355.3 v 60.21 h -35.12 v -60.21 h -20.07 v 140.5 z m -122.29,0 10.04,-65.23 5.02,-40.15 5.02,40.15 10.03,65.23 h 20.07 l 25.09,-140.5 h -20.07 l -10.04,65.23 -5.09,40.14 -4.94,-40.14 -10.04,-65.23 H 202.9 l -10.04,65.23 -4.94,40.14 -5.1,-40.14 -10.04,-65.23 h -20.07 l 25.09,140.5 z"
   clip-path="url(#SVGID_2_)"
   id="path18"
   style="fill:#000000;fill-opacity:1" />
	<path
   class="st0"
   d="m 829.29,590.64 h 11.64 l 2.52,13.14 h 4.52 L 838,553.3 h -5.81 l -9.97,50.47 h 4.49 z m 5.77,-32.7 5.31,29.74 h -10.56 z m -46.81,36.08 c 0.22,1.46 0.62,2.86 1.2,4.2 0.58,1.34 1.33,2.46 2.26,3.37 0.93,0.91 2.13,1.63 3.6,2.17 1.48,0.54 3.19,0.81 5.15,0.81 1.82,0 3.42,-0.27 4.81,-0.81 1.39,-0.54 2.52,-1.26 3.4,-2.17 0.88,-0.91 1.6,-2.03 2.15,-3.37 0.56,-1.34 0.94,-2.74 1.16,-4.21 0.21,-1.47 0.32,-3.09 0.32,-4.87 v -2.46 h -4.25 v 3.46 c 0,1.62 -0.12,3.06 -0.36,4.31 -0.24,1.25 -0.65,2.38 -1.21,3.4 -0.57,1.02 -1.36,1.8 -2.36,2.33 -1.01,0.54 -2.22,0.81 -3.65,0.81 -1.58,0 -2.92,-0.27 -4.02,-0.81 -1.09,-0.53 -1.93,-1.32 -2.5,-2.34 -0.58,-1.03 -0.98,-2.15 -1.22,-3.37 -0.24,-1.22 -0.35,-2.66 -0.35,-4.32 V 567 c 0,-1.31 0.07,-2.48 0.2,-3.51 0.13,-1.03 0.39,-2.01 0.75,-2.95 0.36,-0.94 0.84,-1.72 1.44,-2.35 0.6,-0.62 1.37,-1.12 2.33,-1.48 0.96,-0.36 2.08,-0.54 3.37,-0.54 1.43,0 2.64,0.27 3.65,0.81 1.01,0.54 1.79,1.31 2.36,2.32 0.57,1.01 0.97,2.14 1.21,3.39 0.24,1.25 0.36,2.69 0.36,4.31 v 3.05 h 4.25 V 568 c 0,-10.26 -3.95,-15.4 -11.85,-15.4 -1.92,0 -3.6,0.27 -5.06,0.79 -1.45,0.53 -2.65,1.25 -3.59,2.16 -0.94,0.91 -1.71,2.03 -2.3,3.36 -0.6,1.33 -1.01,2.73 -1.25,4.19 -0.24,1.47 -0.35,3.1 -0.35,4.9 v 21.15 c 0.02,1.79 0.13,3.42 0.35,4.87 m -14,-40.72 h -4.46 v 50.47 h 4.46 z m -23.57,50.47 v -46.89 h 9.91 V 553.3 H 736.4 v 3.58 h 9.82 v 46.89 z m -45.81,-9.75 c 0.22,1.46 0.62,2.86 1.2,4.2 0.57,1.34 1.33,2.46 2.26,3.37 0.93,0.91 2.13,1.63 3.61,2.17 1.48,0.54 3.19,0.81 5.15,0.81 1.82,0 3.42,-0.27 4.81,-0.81 1.39,-0.54 2.52,-1.26 3.4,-2.17 0.88,-0.91 1.6,-2.03 2.15,-3.37 0.56,-1.34 0.94,-2.74 1.16,-4.21 0.21,-1.47 0.32,-3.09 0.32,-4.87 v -2.46 h -4.25 v 3.46 c 0,1.62 -0.12,3.06 -0.36,4.31 -0.24,1.25 -0.65,2.38 -1.22,3.4 -0.57,1.02 -1.35,1.8 -2.36,2.33 -1.01,0.54 -2.22,0.81 -3.65,0.81 -1.58,0 -2.92,-0.27 -4.02,-0.81 -1.09,-0.53 -1.93,-1.32 -2.51,-2.34 -0.57,-1.03 -0.98,-2.15 -1.21,-3.37 -0.24,-1.22 -0.35,-2.66 -0.35,-4.32 V 567 c 0,-1.31 0.07,-2.48 0.2,-3.51 0.14,-1.03 0.39,-2.01 0.75,-2.95 0.36,-0.94 0.84,-1.72 1.44,-2.35 0.6,-0.62 1.37,-1.12 2.33,-1.48 0.96,-0.36 2.08,-0.54 3.37,-0.54 1.43,0 2.64,0.27 3.65,0.81 1.01,0.54 1.79,1.31 2.36,2.32 0.57,1.01 0.97,2.14 1.22,3.39 0.24,1.25 0.36,2.69 0.36,4.31 v 3.05 h 4.25 V 568 c 0,-10.26 -3.95,-15.4 -11.85,-15.4 -1.92,0 -3.6,0.27 -5.06,0.79 -1.45,0.53 -2.66,1.25 -3.59,2.16 -0.93,0.91 -1.7,2.03 -2.3,3.36 -0.6,1.33 -1.01,2.73 -1.25,4.19 -0.24,1.47 -0.35,3.1 -0.35,4.9 v 21.15 c 0,1.79 0.11,3.42 0.34,4.87 m -32.24,9.75 v -24.63 h 8.47 l 7.36,24.63 h 4.75 l -7.8,-25.19 c 4.69,-1.72 7.04,-5.8 7.04,-12.23 0,-1.49 -0.09,-2.84 -0.28,-4.06 -0.19,-1.22 -0.52,-2.41 -1.01,-3.55 -0.49,-1.14 -1.13,-2.1 -1.92,-2.87 -0.79,-0.77 -1.83,-1.39 -3.12,-1.86 -1.29,-0.47 -2.78,-0.71 -4.48,-0.71 h -13.46 v 50.47 z m 0,-46.89 h 8.97 c 1.02,0 1.91,0.16 2.67,0.5 0.77,0.33 1.38,0.77 1.85,1.33 0.47,0.56 0.85,1.25 1.13,2.06 0.28,0.82 0.48,1.66 0.59,2.52 0.11,0.86 0.16,1.83 0.16,2.91 0,1.31 -0.08,2.47 -0.26,3.49 -0.18,1.02 -0.48,2 -0.93,2.93 -0.44,0.94 -1.1,1.66 -1.98,2.17 -0.88,0.51 -1.95,0.77 -3.23,0.77 h -8.97 z m -34.8,33.76 h 11.64 l 2.52,13.14 h 4.52 l -9.97,-50.47 h -5.81 l -9.97,50.47 h 4.49 z m 5.78,-32.7 5.31,29.74 h -10.56 z m -28.74,45.83 v -46.89 h 9.91 v -3.58 h -24.19 v 3.58 h 9.82 v 46.89 z m -42.87,0 v -39.12 l 16.01,39.12 h 3.35 V 553.3 h -3.79 v 39.97 L 571.59,553.3 h -3.43 v 50.47 z m -34.19,-13.13 h 11.64 l 2.52,13.14 h 4.52 l -9.97,-50.47 h -5.81 l -9.97,50.47 h 4.48 z m 5.78,-32.7 5.31,29.74 h -10.56 z"
   clip-path="url(#SVGID_2_)"
   id="path20"
   style="fill:#000000;fill-opacity:1" />
	<path
   class="st0"
   d="m 894.13,259.51 c -2.09,-6.96 -8.35,-10.91 -16.51,-17.96 -8.11,-6.36 -17.74,-13.07 -24.84,-17.41 -1.69,-0.74 -10.26,-11.1 -16.77,-20.29 -6.8,-9.34 -12.69,-18.12 -12.69,-18.15 l -4.43,-6.58 -4.06,6.8 c -0.04,0.1 -4.59,7.65 -6.75,11.48 -3.71,0.57 -14.64,0.8 -16.41,0.73 -5.15,0.91 -4.88,2.47 -7.49,4.32 -3.03,2.86 -6.84,6.84 -10.21,10.1 -1.68,1.6 -3.25,3.01 -4.42,3.89 -0.04,0.04 -0.11,0.06 -0.14,0.12 -1.1,-1.2 -2.85,-3.41 -4.32,-5.6 -2.33,-3.12 -3.53,-5.69 -6.54,-8.03 -0.57,-0.43 -1.85,-1.01 -3.18,-0.99 -3.8,0.2 -5.03,3.07 -5.3,3.91 -1.11,3.49 -0.76,6.53 -1.03,10.43 -0.08,3.63 -0.78,7.49 -1.17,7.83 -0.67,1.53 -4.04,2.79 -6.57,2.7 -0.31,0 -0.61,-0.01 -0.8,-0.04 -1.94,-1.74 -7.55,-8.11 -12.64,-13.77 -2.85,-3.11 -5.66,-6.16 -8.06,-8.51 -3,-2.3 -2.98,-4.16 -8.3,-5.09 -0.52,0.02 -0.86,0.08 -1.08,0.12 -3.83,0.75 -4.73,3.98 -5.09,5.37 -0.41,1.69 -0.47,3.26 -0.47,4.92 0,4.23 0.64,9.34 0.71,11.46 -2.03,2.74 -10.87,13.17 -18.9,22.19 -6.08,6.89 -12,13.48 -15.29,17.16 l -1.34,-3.77 -1.24,-3.52 -3.7,0.17 c 0,0 -0.55,0.04 -1.45,0.04 -2.07,0.15 -6.47,-0.68 -6.49,-0.87 -1.37,-0.69 -25.37,-28.51 -25.93,-29.49 -3.05,-2.76 -4.61,-2.72 -6.18,-2.66 -0.61,0.04 -1.24,0.05 -1.92,-0.08 -3.01,0 -6.62,0.31 -9.12,0.43 -0.44,-2.96 -0.93,-7.95 -0.87,-9.32 -0.28,-4.36 -3.29,-5.76 -4.76,-6.45 -2.22,-0.92 -4.69,-1.42 -6.77,-1.69 -0.04,-11.3 -0.2,-39.9 -1.91,-47.16 -1.54,-5.34 -6.11,-11.08 -11.1,-17 -2.5,-2.85 -5.08,-5.48 -7.43,-7.53 -2.64,-1.97 -3.75,-3.75 -8.14,-4.25 -2.05,-0.34 -5.35,2.11 -5.61,4.23 -3.15,10.56 -8.38,18.12 -12.78,23.02 -4.39,4.91 -7.73,6.86 -7.67,6.94 l -1.87,1.18 -0.4,2.18 c 0.03,0.04 -4.96,27.3 -6.91,32.99 -0.04,1.05 -13.67,20.72 -26.26,37.68 -12.78,17.43 -25.26,34 -25.29,34.02 l -6.11,8.07 10.14,-0.04 c 0.03,0 16.86,-0.12 36,-0.12 22.73,-0.02 49.71,0.23 52.94,0.76 7.01,1.01 32.29,8.7 51.29,15.45 18.17,6.5 28.58,18.48 32.79,21.78 3.96,2.44 6.82,1.93 10.97,2.16 6.87,0 15.13,-0.95 17.5,-1.21 1.32,-0.13 2.69,-0.35 4.04,-0.75 0.7,-0.2 1.38,-0.4 2.29,-0.9 0.66,-0.45 2.74,-1.38 2.98,-4.89 -0.57,-4.48 -3.06,-4.75 -3.92,-5.37 -1.2,-0.5 -2.44,-0.84 -4.11,-1.21 -1.56,-0.2 -4.13,-2.39 -5.93,-5.25 -0.89,-1.36 -1.6,-2.8 -2.06,-3.87 -0.17,-0.43 -0.31,-0.81 -0.4,-1.09 0.37,-1.92 3.02,-6.58 3.59,-6.5 0.8,-0.4 1.24,-0.6 1.43,-0.65 l -0.02,-0.03 c 0.16,-0.07 2.14,0.54 6.57,1.5 2.01,0.26 9.59,4.56 16.52,8.68 7.46,4.08 13.71,8.35 20.25,8.73 6.49,-0.23 10.41,-4.42 13.39,-7.73 1.47,-1.71 2.74,-3.37 3.68,-4.6 0.32,-0.44 0.63,-0.82 0.86,-1.11 0.4,-0.04 1.04,-0.09 1.72,-0.07 2.55,0 6.02,0.34 8.17,0.6 1.7,0.62 4.54,6 10.74,8.33 3.19,0.76 10.23,1.6 13.24,1.97 8.23,6.35 18.66,11.33 25.77,12.95 0.72,0.14 1.28,0.22 1.92,0.22 1.19,0 2.92,-0.31 4.4,-1.66 1.49,-1.41 1.91,-3.31 1.87,-4.47 -0.34,-4.29 -2.2,-6.1 -3.84,-8.72 -1.52,-1.98 -2.42,-3.28 -3.72,-4.5 -0.34,-1.74 -0.95,-7.53 -3.04,-11.95 -2.39,-3.98 -5.49,-4.21 -8.11,-4.84 -7.86,-1.16 -20.47,-0.43 -24.57,-2.42 -3.05,-1.64 -4.18,-2.33 -4.58,-2.86 1.44,-0.12 3.33,-0.17 5.07,-0.17 0.96,-0.08 1.78,-0.08 2.56,-0.08 1.94,0 3.62,0.02 6.43,-1.26 2.22,-1.34 3.12,-3.98 3,-5.49 -0.35,-3.75 -2.02,-6.65 -3.41,-8.73 3.51,-2.19 10.83,-5.62 12.33,-5.54 v 0.04 c 6.33,0.74 8.1,3.03 9.74,5.83 0.77,1.39 1.23,2.96 1.67,4.44 0.78,1.59 -0.12,2.47 2.98,5.6 0.85,0.63 2.17,1.39 4.06,1.41 3.75,-0.23 5.25,-2.49 6.3,-3.96 1.12,-1.69 2.12,-3.71 3.39,-6.43 0.92,-2.03 3.7,-5.61 6.49,-8.24 1.33,-1.3 2.69,-2.44 3.7,-3.12 1.09,0.67 2.24,1.18 3.84,2.13 8.29,4.32 23,10.88 28.61,12.76 4.2,1.07 17.02,14.07 21.84,17.59 0.8,0.5 1.79,1.12 3.6,1.19 1.76,0.16 4.21,-1.42 4.8,-2.87 0.73,-1.41 0.71,-2.3 0.73,-3.04 -0.31,-5.36 -4.1,-13.5 -4.49,-16.65"
   clip-path="url(#SVGID_2_)"
   id="path22"
   style="fill:#000000;fill-opacity:1" />
</g>
</svg>
